<mxfile host="65bd71144e">
    <diagram id="7x-XDJicnbgjByKpW-q_" name="Page-1">
        <mxGraphModel dx="1436" dy="2217" grid="1" gridSize="10" guides="1" tooltips="1" connect="1" arrows="1" fold="1" page="1" pageScale="1" pageWidth="827" pageHeight="1169" math="0" shadow="0">
            <root>
                <mxCell id="0"/>
                <mxCell id="1" parent="0"/>
                <mxCell id="5" style="edgeStyle=none;html=1;entryX=0.5;entryY=0;entryDx=0;entryDy=0;fontColor=#ffffff;strokeColor=#FFFFFF;" edge="1" parent="1" source="2" target="3">
                    <mxGeometry relative="1" as="geometry"/>
                </mxCell>
                <mxCell id="2" value="Inicio" style="strokeWidth=2;html=1;shape=mxgraph.flowchart.start_1;whiteSpace=wrap;fillColor=#76608a;fontColor=#ffffff;strokeColor=#432D57;" vertex="1" parent="1">
                    <mxGeometry x="330" y="-90" width="100" height="60" as="geometry"/>
                </mxCell>
                <mxCell id="6" style="edgeStyle=none;html=1;entryX=0.5;entryY=0;entryDx=0;entryDy=0;fontColor=#ffffff;strokeColor=#FFFFFF;" edge="1" parent="1" source="3" target="4">
                    <mxGeometry relative="1" as="geometry"/>
                </mxCell>
                <mxCell id="3" value="i = 1" style="rounded=0;whiteSpace=wrap;html=1;fillColor=#76608a;fontColor=#ffffff;strokeColor=#432D57;" vertex="1" parent="1">
                    <mxGeometry x="320" y="40" width="120" height="40" as="geometry"/>
                </mxCell>
                <mxCell id="7" style="edgeStyle=none;html=1;fontColor=#ffffff;strokeColor=#FFFFFF;" edge="1" parent="1" source="4">
                    <mxGeometry relative="1" as="geometry">
                        <mxPoint x="220" y="200" as="targetPoint"/>
                    </mxGeometry>
                </mxCell>
                <mxCell id="11" style="edgeStyle=none;html=1;fontColor=#ffffff;strokeColor=#FFFFFF;" edge="1" parent="1" source="4">
                    <mxGeometry relative="1" as="geometry">
                        <mxPoint x="377.5" y="290" as="targetPoint"/>
                    </mxGeometry>
                </mxCell>
                <mxCell id="4" value="i &amp;lt; n" style="rhombus;whiteSpace=wrap;html=1;fillColor=#76608a;fontColor=#ffffff;strokeColor=#432D57;" vertex="1" parent="1">
                    <mxGeometry x="315" y="160" width="125" height="80" as="geometry"/>
                </mxCell>
                <mxCell id="8" value="fin" style="ellipse;whiteSpace=wrap;html=1;fillColor=#76608a;fontColor=#ffffff;strokeColor=#432D57;" vertex="1" parent="1">
                    <mxGeometry x="130" y="180" width="87.5" height="40" as="geometry"/>
                </mxCell>
                <mxCell id="10" style="edgeStyle=none;html=1;fontColor=#ffffff;strokeColor=#FFFFFF;" edge="1" parent="1" source="9">
                    <mxGeometry relative="1" as="geometry">
                        <mxPoint x="380" y="120" as="targetPoint"/>
                    </mxGeometry>
                </mxCell>
                <mxCell id="75" style="edgeStyle=none;html=1;fontSize=12;startArrow=none;startFill=0;endArrow=none;endFill=0;fontColor=#ffffff;strokeColor=#FFFFFF;" edge="1" parent="1" source="9">
                    <mxGeometry relative="1" as="geometry">
                        <mxPoint x="610" y="120" as="targetPoint"/>
                    </mxGeometry>
                </mxCell>
                <mxCell id="9" value="i = i+1" style="rounded=0;whiteSpace=wrap;html=1;fillColor=#76608a;fontColor=#ffffff;strokeColor=#432D57;" vertex="1" parent="1">
                    <mxGeometry x="490" y="100" width="90" height="40" as="geometry"/>
                </mxCell>
                <mxCell id="12" value="j = i -1" style="rounded=0;whiteSpace=wrap;html=1;fillColor=#76608a;fontColor=#ffffff;strokeColor=#432D57;" vertex="1" parent="1">
                    <mxGeometry x="317.5" y="290" width="120" height="40" as="geometry"/>
                </mxCell>
                <mxCell id="14" value="" style="endArrow=classic;html=1;fontColor=#ffffff;strokeColor=#FFFFFF;" edge="1" parent="1">
                    <mxGeometry width="50" height="50" relative="1" as="geometry">
                        <mxPoint x="377.33" y="330" as="sourcePoint"/>
                        <mxPoint x="377" y="400" as="targetPoint"/>
                    </mxGeometry>
                </mxCell>
                <mxCell id="22" style="edgeStyle=none;html=1;fontColor=#ffffff;strokeColor=#FFFFFF;" edge="1" parent="1" source="21">
                    <mxGeometry relative="1" as="geometry">
                        <mxPoint x="377.5" y="510" as="targetPoint"/>
                    </mxGeometry>
                </mxCell>
                <mxCell id="21" value="inf = 1&lt;br&gt;sup = n" style="rounded=0;whiteSpace=wrap;html=1;fillColor=#76608a;fontColor=#ffffff;strokeColor=#432D57;" vertex="1" parent="1">
                    <mxGeometry x="317.5" y="400" width="120" height="60" as="geometry"/>
                </mxCell>
                <mxCell id="24" style="edgeStyle=none;html=1;fontColor=#ffffff;strokeColor=#FFFFFF;" edge="1" parent="1" source="23">
                    <mxGeometry relative="1" as="geometry">
                        <mxPoint x="377.5" y="600" as="targetPoint"/>
                    </mxGeometry>
                </mxCell>
                <mxCell id="23" value="central = (inf+ sup)/2" style="rounded=0;whiteSpace=wrap;html=1;fillColor=#76608a;fontColor=#ffffff;strokeColor=#432D57;" vertex="1" parent="1">
                    <mxGeometry x="302.5" y="510" width="150" height="60" as="geometry"/>
                </mxCell>
                <mxCell id="26" style="edgeStyle=none;html=1;fontColor=#ffffff;strokeColor=#FFFFFF;" edge="1" parent="1" source="25">
                    <mxGeometry relative="1" as="geometry">
                        <mxPoint x="377.5" y="700" as="targetPoint"/>
                    </mxGeometry>
                </mxCell>
                <mxCell id="43" style="edgeStyle=none;html=1;startArrow=none;startFill=0;endArrow=none;endFill=0;fontColor=#ffffff;strokeColor=#FFFFFF;" edge="1" parent="1" source="25">
                    <mxGeometry relative="1" as="geometry">
                        <mxPoint x="200" y="630" as="targetPoint"/>
                    </mxGeometry>
                </mxCell>
                <mxCell id="44" style="edgeStyle=none;html=1;startArrow=none;startFill=0;endArrow=none;endFill=0;fontColor=#ffffff;strokeColor=#FFFFFF;" edge="1" parent="1" source="25">
                    <mxGeometry relative="1" as="geometry">
                        <mxPoint x="600" y="630" as="targetPoint"/>
                    </mxGeometry>
                </mxCell>
                <mxCell id="25" value="mientras bajo &amp;lt; alto&lt;br&gt;y x[medio] != valor" style="shape=hexagon;perimeter=hexagonPerimeter2;whiteSpace=wrap;html=1;fixedSize=1;fillColor=#76608a;fontColor=#ffffff;strokeColor=#432D57;" vertex="1" parent="1">
                    <mxGeometry x="302.5" y="600" width="150" height="60" as="geometry"/>
                </mxCell>
                <mxCell id="28" style="edgeStyle=none;html=1;fontColor=#ffffff;strokeColor=#FFFFFF;" edge="1" parent="1" source="27">
                    <mxGeometry relative="1" as="geometry">
                        <mxPoint x="480" y="735" as="targetPoint"/>
                    </mxGeometry>
                </mxCell>
                <mxCell id="31" style="edgeStyle=none;html=1;fontColor=#ffffff;strokeColor=#FFFFFF;" edge="1" parent="1" source="27">
                    <mxGeometry relative="1" as="geometry">
                        <mxPoint x="376.875" y="810" as="targetPoint"/>
                    </mxGeometry>
                </mxCell>
                <mxCell id="27" value="valor &amp;lt; x[medio]" style="rhombus;whiteSpace=wrap;html=1;fillColor=#76608a;fontColor=#ffffff;strokeColor=#432D57;" vertex="1" parent="1">
                    <mxGeometry x="320" y="700" width="113.75" height="70" as="geometry"/>
                </mxCell>
                <mxCell id="29" value="si" style="text;html=1;strokeColor=none;fillColor=none;align=center;verticalAlign=middle;whiteSpace=wrap;rounded=0;fontColor=#ffffff;" vertex="1" parent="1">
                    <mxGeometry x="430" y="710" width="50" height="20" as="geometry"/>
                </mxCell>
                <mxCell id="37" style="edgeStyle=none;html=1;endArrow=none;endFill=0;exitX=0.454;exitY=1.009;exitDx=0;exitDy=0;exitPerimeter=0;fontColor=#ffffff;strokeColor=#FFFFFF;" edge="1" parent="1" source="30">
                    <mxGeometry relative="1" as="geometry">
                        <mxPoint x="530" y="870" as="targetPoint"/>
                    </mxGeometry>
                </mxCell>
                <mxCell id="30" value="sup = medio -1" style="rounded=0;whiteSpace=wrap;html=1;fillColor=#76608a;fontColor=#ffffff;strokeColor=#432D57;" vertex="1" parent="1">
                    <mxGeometry x="480" y="722.5" width="110" height="25" as="geometry"/>
                </mxCell>
                <mxCell id="32" value="no" style="text;html=1;strokeColor=none;fillColor=none;align=center;verticalAlign=middle;whiteSpace=wrap;rounded=0;fontColor=#ffffff;" vertex="1" parent="1">
                    <mxGeometry x="330" y="770" width="40" height="30" as="geometry"/>
                </mxCell>
                <mxCell id="36" style="edgeStyle=none;html=1;entryX=0.5;entryY=0;entryDx=0;entryDy=0;fontColor=#ffffff;strokeColor=#FFFFFF;" edge="1" parent="1" source="33" target="34">
                    <mxGeometry relative="1" as="geometry"/>
                </mxCell>
                <mxCell id="33" value="inf = medio + 1" style="rounded=0;whiteSpace=wrap;html=1;fillColor=#76608a;fontColor=#ffffff;strokeColor=#432D57;" vertex="1" parent="1">
                    <mxGeometry x="321.25" y="810" width="112.5" height="30" as="geometry"/>
                </mxCell>
                <mxCell id="40" style="edgeStyle=none;html=1;startArrow=none;startFill=0;endArrow=none;endFill=0;exitX=0.514;exitY=0.992;exitDx=0;exitDy=0;exitPerimeter=0;fontColor=#ffffff;strokeColor=#FFFFFF;" edge="1" parent="1" source="34">
                    <mxGeometry relative="1" as="geometry">
                        <mxPoint x="379" y="970" as="targetPoint"/>
                    </mxGeometry>
                </mxCell>
                <mxCell id="34" value="medio = (inf+ sup)/2" style="rounded=0;whiteSpace=wrap;html=1;fillColor=#76608a;fontColor=#ffffff;strokeColor=#432D57;" vertex="1" parent="1">
                    <mxGeometry x="301.88" y="890" width="150" height="60" as="geometry"/>
                </mxCell>
                <mxCell id="39" value="" style="endArrow=none;html=1;endFill=0;startArrow=classic;startFill=1;fontColor=#ffffff;strokeColor=#FFFFFF;" edge="1" parent="1">
                    <mxGeometry width="50" height="50" relative="1" as="geometry">
                        <mxPoint x="380" y="870" as="sourcePoint"/>
                        <mxPoint x="530" y="870" as="targetPoint"/>
                    </mxGeometry>
                </mxCell>
                <mxCell id="41" value="" style="endArrow=none;html=1;fontColor=#ffffff;strokeColor=#FFFFFF;" edge="1" parent="1">
                    <mxGeometry width="50" height="50" relative="1" as="geometry">
                        <mxPoint x="380" y="970" as="sourcePoint"/>
                        <mxPoint x="200" y="970" as="targetPoint"/>
                    </mxGeometry>
                </mxCell>
                <mxCell id="42" value="" style="endArrow=none;html=1;fontColor=#ffffff;strokeColor=#FFFFFF;" edge="1" parent="1">
                    <mxGeometry width="50" height="50" relative="1" as="geometry">
                        <mxPoint x="200" y="970" as="sourcePoint"/>
                        <mxPoint x="200" y="630" as="targetPoint"/>
                    </mxGeometry>
                </mxCell>
                <mxCell id="45" value="" style="endArrow=none;html=1;fontColor=#ffffff;strokeColor=#FFFFFF;" edge="1" parent="1">
                    <mxGeometry width="50" height="50" relative="1" as="geometry">
                        <mxPoint x="600" y="1000" as="sourcePoint"/>
                        <mxPoint x="600" y="630" as="targetPoint"/>
                    </mxGeometry>
                </mxCell>
                <mxCell id="46" value="" style="endArrow=none;html=1;fontColor=#ffffff;strokeColor=#FFFFFF;" edge="1" parent="1">
                    <mxGeometry width="50" height="50" relative="1" as="geometry">
                        <mxPoint x="400" y="1000" as="sourcePoint"/>
                        <mxPoint x="600" y="1000" as="targetPoint"/>
                    </mxGeometry>
                </mxCell>
                <mxCell id="47" value="" style="endArrow=none;html=1;startArrow=classic;startFill=1;exitX=0.5;exitY=0;exitDx=0;exitDy=0;fontColor=#ffffff;strokeColor=#FFFFFF;" edge="1" parent="1">
                    <mxGeometry width="50" height="50" relative="1" as="geometry">
                        <mxPoint x="400" y="1030" as="sourcePoint"/>
                        <mxPoint x="400" y="1000" as="targetPoint"/>
                    </mxGeometry>
                </mxCell>
                <mxCell id="50" value="busqueda binaria" style="text;html=1;strokeColor=none;fillColor=none;align=center;verticalAlign=middle;whiteSpace=wrap;rounded=0;dashed=1;strokeWidth=1;fontSize=15;fontColor=#ffffff;" vertex="1" parent="1">
                    <mxGeometry x="650" y="390" width="120" height="30" as="geometry"/>
                </mxCell>
                <mxCell id="51" value="bucle por los elementos desordenados" style="text;html=1;strokeColor=none;fillColor=none;align=center;verticalAlign=middle;whiteSpace=wrap;rounded=0;dashed=1;strokeWidth=1;fontSize=15;fontColor=#ffffff;" vertex="1" parent="1">
                    <mxGeometry x="640" y="-90" width="120" height="90" as="geometry"/>
                </mxCell>
                <mxCell id="68" style="edgeStyle=none;html=1;fontSize=12;startArrow=none;startFill=0;endArrow=classic;endFill=1;fontColor=#ffffff;strokeColor=#FFFFFF;" edge="1" parent="1" source="62">
                    <mxGeometry relative="1" as="geometry">
                        <mxPoint x="400" y="1170" as="targetPoint"/>
                    </mxGeometry>
                </mxCell>
                <mxCell id="62" value="temp = array[i]&lt;br&gt;k = i" style="rounded=0;whiteSpace=wrap;html=1;strokeColor=#432D57;strokeWidth=1;fontSize=12;fillColor=#76608a;fontColor=#ffffff;" vertex="1" parent="1">
                    <mxGeometry x="340" y="1030" width="120" height="60" as="geometry"/>
                </mxCell>
                <mxCell id="72" style="edgeStyle=none;html=1;fontSize=12;startArrow=none;startFill=0;endArrow=classic;endFill=1;entryX=0;entryY=0.5;entryDx=0;entryDy=0;fontColor=#ffffff;strokeColor=#FFFFFF;" edge="1" parent="1" source="71" target="73">
                    <mxGeometry relative="1" as="geometry">
                        <mxPoint x="570" y="1210" as="targetPoint"/>
                    </mxGeometry>
                </mxCell>
                <mxCell id="78" style="edgeStyle=none;html=1;fontSize=12;startArrow=none;startFill=0;endArrow=classic;endFill=1;fontColor=#ffffff;strokeColor=#FFFFFF;" edge="1" parent="1" source="71">
                    <mxGeometry relative="1" as="geometry">
                        <mxPoint x="400.0000000000001" y="1320" as="targetPoint"/>
                    </mxGeometry>
                </mxCell>
                <mxCell id="71" value="k &amp;gt; j + 1" style="rhombus;whiteSpace=wrap;html=1;strokeColor=#432D57;strokeWidth=1;fontSize=12;fillColor=#76608a;fontColor=#ffffff;" vertex="1" parent="1">
                    <mxGeometry x="320" y="1169" width="160" height="80" as="geometry"/>
                </mxCell>
                <mxCell id="74" style="edgeStyle=none;html=1;fontSize=12;startArrow=none;startFill=0;endArrow=none;endFill=0;entryX=0.961;entryY=0.595;entryDx=0;entryDy=0;entryPerimeter=0;exitX=0.5;exitY=0;exitDx=0;exitDy=0;fontColor=#ffffff;strokeColor=#FFFFFF;" edge="1" parent="1" source="73">
                    <mxGeometry relative="1" as="geometry">
                        <mxPoint x="610.1099999999999" y="120.15000000000009" as="targetPoint"/>
                    </mxGeometry>
                </mxCell>
                <mxCell id="73" value="array[k] = temp" style="rounded=0;whiteSpace=wrap;html=1;strokeColor=#432D57;strokeWidth=1;fontSize=12;fillColor=#76608a;fontColor=#ffffff;" vertex="1" parent="1">
                    <mxGeometry x="550" y="1188.5" width="120" height="41" as="geometry"/>
                </mxCell>
                <mxCell id="77" value="no" style="text;html=1;strokeColor=none;fillColor=none;align=center;verticalAlign=middle;whiteSpace=wrap;rounded=0;strokeWidth=1;fontSize=12;fontColor=#ffffff;" vertex="1" parent="1">
                    <mxGeometry x="480" y="1180" width="60" height="21" as="geometry"/>
                </mxCell>
                <mxCell id="80" value="si" style="text;html=1;strokeColor=none;fillColor=none;align=center;verticalAlign=middle;whiteSpace=wrap;rounded=0;strokeWidth=1;fontSize=12;fontColor=#ffffff;" vertex="1" parent="1">
                    <mxGeometry x="407.5" y="1270" width="30" height="30" as="geometry"/>
                </mxCell>
                <mxCell id="82" style="edgeStyle=none;html=1;fontSize=12;startArrow=none;startFill=0;endArrow=none;endFill=0;fontColor=#ffffff;strokeColor=#FFFFFF;" edge="1" parent="1" source="81">
                    <mxGeometry relative="1" as="geometry">
                        <mxPoint x="220" y="1340.5" as="targetPoint"/>
                    </mxGeometry>
                </mxCell>
                <mxCell id="81" value="array[k] = array[k-1]" style="rounded=0;whiteSpace=wrap;html=1;strokeColor=#432D57;strokeWidth=1;fontSize=12;fillColor=#76608a;fontColor=#ffffff;" vertex="1" parent="1">
                    <mxGeometry x="340" y="1320" width="120" height="41" as="geometry"/>
                </mxCell>
                <mxCell id="84" style="edgeStyle=none;html=1;fontSize=12;startArrow=none;startFill=0;endArrow=classic;endFill=1;fontColor=#ffffff;strokeColor=#FFFFFF;" edge="1" parent="1" source="83">
                    <mxGeometry relative="1" as="geometry">
                        <mxPoint x="220" y="1340" as="targetPoint"/>
                    </mxGeometry>
                </mxCell>
                <mxCell id="87" style="edgeStyle=none;html=1;fontSize=12;startArrow=none;startFill=0;endArrow=classic;endFill=1;fontColor=#ffffff;strokeColor=#FFFFFF;" edge="1" parent="1" source="83">
                    <mxGeometry relative="1" as="geometry">
                        <mxPoint x="400" y="1134.75" as="targetPoint"/>
                    </mxGeometry>
                </mxCell>
                <mxCell id="83" value="k = k-1" style="rounded=0;whiteSpace=wrap;html=1;strokeColor=#432D57;strokeWidth=1;fontSize=12;fillColor=#76608a;fontColor=#ffffff;" vertex="1" parent="1">
                    <mxGeometry x="180" y="1120" width="80" height="29.5" as="geometry"/>
                </mxCell>
                <mxCell id="89" value="desplazamiento" style="text;html=1;strokeColor=none;fillColor=none;align=center;verticalAlign=middle;whiteSpace=wrap;rounded=0;dashed=1;strokeWidth=1;fontSize=15;fontColor=#ffffff;" vertex="1" parent="1">
                    <mxGeometry x="707" y="1104.75" width="120" height="30" as="geometry"/>
                </mxCell>
                <mxCell id="93" value="" style="rounded=0;whiteSpace=wrap;html=1;dashed=1;labelBackgroundColor=#19151e;strokeColor=#FFFFFF;strokeWidth=1;fontSize=12;fontColor=#ffffff;fillColor=none;" vertex="1" parent="1">
                    <mxGeometry x="143" y="1104.75" width="540" height="290" as="geometry"/>
                </mxCell>
                <mxCell id="94" value="" style="rounded=0;whiteSpace=wrap;html=1;dashed=1;labelBackgroundColor=#19151e;strokeColor=#FFFFFF;strokeWidth=1;fontSize=12;fontColor=#ffffff;fillColor=none;" vertex="1" parent="1">
                    <mxGeometry x="143" y="360" width="497" height="625" as="geometry"/>
                </mxCell>
                <mxCell id="96" value="" style="rounded=0;whiteSpace=wrap;html=1;dashed=1;labelBackgroundColor=#19151e;strokeColor=#FFFFFF;strokeWidth=1;fontSize=12;fontColor=#ffffff;fillColor=none;" vertex="1" parent="1">
                    <mxGeometry x="110" y="-100" width="530" height="360" as="geometry"/>
                </mxCell>
            </root>
        </mxGraphModel>
    </diagram>
</mxfile>
